<svg width="109" height="39" viewBox="0 0 109 39" fill="none" xmlns="http://www.w3.org/2000/svg">
<path d="M28.8811 0.453125H32.6268V38.5197H28.8811V0.453125ZM21.2676 0.453125H23.1402V38.5197H21.2676V0.453125ZM42.1731 0.453125H44.0465V38.5197H42.1731V0.453125ZM38.3665 0.453125H40.2398V38.5197H38.3665V0.453125ZM6.04154 0.453125H7.97501V38.5197H6.04154V0.453125ZM11.7808 0.453125H13.6539V38.5197H11.7808V0.453125ZM0.361328 0.453125H4.16796V38.5469H0.361328V0.453125ZM45.9801 0.453125H47.8535V38.5197H45.9801V0.453125ZM83.9256 0.453125H87.732V38.5197H83.9256V0.453125ZM93.4723 0.453125H99.1519V38.5197H93.4723V0.453125ZM101.025 0.453125H102.958V38.5197H101.025V0.453125ZM104.831 0.453125H108.638V38.5469H104.831V0.453125ZM70.6328 0.453125H74.4394V38.5197H70.6328V0.453125ZM78.246 0.453125H82.0526V38.5197H78.246V0.453125ZM63.0197 0.453125H66.8261V38.5197H63.0197V0.453125ZM53.5324 0.453125H57.3395V38.5197H53.5324V0.453125Z" fill="#343434"/>
</svg>
