<svg width="31" height="30" viewBox="0 0 31 30" fill="none" xmlns="http://www.w3.org/2000/svg">
<g clip-path="url(#clip0_4383_22118)">
<path d="M23.6324 15.0015C19.9794 15.0015 17.0147 17.9665 17.0147 21.6198C17.0147 25.2731 19.9794 28.2382 23.6324 28.2382C27.2853 28.2382 30.25 25.2731 30.25 21.6198C30.25 17.9665 27.2853 15.0015 23.6324 15.0015ZM27.1265 20.9139L23.5971 24.4437C23.4206 24.6201 23.2088 24.7084 22.9794 24.7084C22.75 24.7084 22.5206 24.6201 22.3441 24.4437L20.5794 22.6788C20.4182 22.5136 20.3279 22.2919 20.3279 22.0611C20.3279 21.8302 20.4182 21.6085 20.5794 21.4433C20.9324 21.0904 21.4971 21.0904 21.8324 21.4433L22.9794 22.5729L25.8735 19.6785C26.2265 19.3255 26.7912 19.3255 27.1265 19.6785C27.4794 20.0138 27.4794 20.5786 27.1265 20.9139Z" fill="#8CC031"/>
<path d="M0.250001 8.82443V22.0611C0.249769 22.4088 0.318078 22.7531 0.451023 23.0744C0.583968 23.3957 0.77894 23.6876 1.02479 23.9335C1.27064 24.1794 1.56254 24.3744 1.8838 24.5073C2.20506 24.6403 2.54938 24.7086 2.89706 24.7084H15.85C15.4794 23.7553 15.25 22.7141 15.25 21.6198C15.25 16.9958 19.0088 13.2366 23.6324 13.2366C26.3324 13.2366 28.7147 14.5427 30.25 16.537V8.82443H0.250001ZM9.95588 21.1786H4.66177C4.16765 21.1786 3.77941 20.7903 3.77941 20.2962C3.77941 19.802 4.16765 19.4137 4.66177 19.4137H9.95588C10.45 19.4137 10.8382 19.802 10.8382 20.2962C10.8382 20.7903 10.45 21.1786 9.95588 21.1786ZM30.25 4.41222V7.05955H0.250001V4.41222C0.249769 4.0645 0.318078 3.72015 0.451023 3.39886C0.583968 3.07756 0.77894 2.78563 1.02479 2.53976C1.27064 2.29389 1.56254 2.09889 1.8838 1.96594C2.20506 1.83298 2.54938 1.76466 2.89706 1.76489H27.6029C27.9506 1.76466 28.2949 1.83298 28.6162 1.96594C28.9375 2.09889 29.2294 2.29389 29.4752 2.53976C29.7211 2.78563 29.916 3.07756 30.049 3.39886C30.1819 3.72015 30.2502 4.0645 30.25 4.41222Z" fill="#8CC031"/>
</g>
<defs>
<clipPath id="clip0_4383_22118">
<rect width="30" height="30.003" fill="white" transform="translate(0.25)"/>
</clipPath>
</defs>
</svg>
