<svg width="31" height="30" viewBox="0 0 31 30" fill="none" xmlns="http://www.w3.org/2000/svg">
<g clip-path="url(#clip0_4383_22113)">
<path d="M5.14265 8.96643C4.72218 8.72353 4.18476 8.86775 3.94218 9.28803C3.69931 9.70854 3.84351 10.246 4.26375 10.4886C4.68398 10.7315 5.22164 10.5873 5.46422 10.167C5.70709 9.74651 5.56289 9.20903 5.14265 8.96643ZM27.5548 7.09077H26.6759V6.21177C26.6759 5.72598 26.2829 5.33278 25.797 5.33278C25.3113 5.33278 24.9181 5.72598 24.9181 6.21177V7.09077H24.0392C23.5535 7.09077 23.1602 7.48397 23.1602 7.96977C23.1602 8.45573 23.5535 8.84876 24.0392 8.84876H24.9181V9.72776C24.9181 10.2135 25.3113 10.6068 25.797 10.6068C26.2829 10.6068 26.6759 10.2135 26.6759 9.72776V8.84876H27.5548C28.0405 8.84876 28.4337 8.45573 28.4337 7.96977C28.4337 7.48397 28.0405 7.09077 27.5548 7.09077ZM3.82453 4.39518C3.82453 4.88115 4.21751 5.27418 4.70343 5.27418C5.18918 5.27418 5.58234 4.88115 5.58234 4.39518V3.51619H6.46125C6.94699 3.51619 7.34015 3.12316 7.34015 2.63719C7.34015 2.1514 6.94699 1.7582 6.46125 1.7582H5.58234V0.879199C5.58234 0.393407 5.18918 0.000203077 4.70343 0.000203077C4.21751 0.000203077 3.82453 0.393407 3.82453 0.879199V1.7582H2.94562C2.45988 1.7582 2.06671 2.1514 2.06671 2.63719C2.06671 3.12316 2.45988 3.51619 2.94562 3.51619H3.82453V4.39518ZM9.37606 1.64328C10.2126 3.31701 10.6772 5.16477 10.7942 7.03211H19.7064C19.8232 5.16501 20.2878 3.31701 21.1243 1.64328L21.3097 1.27246C21.3923 1.10747 21.4207 0.92068 21.3912 0.738583C21.3616 0.556486 21.2755 0.388319 21.145 0.257925C20.8781 -0.00987609 20.4695 -0.0760352 20.1305 0.0931423L17.1814 1.56775L15.8715 0.257925C15.5282 -0.0854111 14.972 -0.0854111 14.6287 0.257925L13.319 1.56775L10.3699 0.0929079C10.03 -0.0760352 9.62414 -0.0108137 9.35549 0.257925C9.22497 0.388303 9.13881 0.556467 9.10923 0.738569C9.07964 0.92067 9.10814 1.10746 9.19066 1.27246L9.37606 1.64328ZM20.6313 8.84876H9.86883L6.43722 13.0025C4.75242 15.0429 3.82453 17.6842 3.82453 20.3343C3.82453 26.208 8.3093 30.003 15.2501 30.003C22.1912 30.003 26.6759 26.208 26.6759 20.3343C26.6759 17.6843 25.748 15.1015 24.0623 13.0611L20.6313 8.84876ZM15.2407 17.9548C16.6948 17.9548 17.8774 19.1376 17.8774 20.5918C17.8774 21.7327 17.145 22.6971 16.129 23.0638V23.8503C16.129 24.336 15.736 24.7293 15.2501 24.7293C14.7644 24.7293 14.3714 24.336 14.3714 23.8503V23.0697C13.3456 22.7083 12.604 21.7395 12.604 20.5918C12.604 20.1058 12.9972 19.7128 13.4829 19.7128C13.9688 19.7128 14.3618 20.1058 14.3618 20.5918C14.3618 21.0769 14.7559 21.4708 15.2407 21.4708C15.7257 21.4708 16.1196 21.0769 16.1196 20.5918C16.1196 20.1068 15.7257 19.7128 15.2407 19.7128C13.7868 19.7128 12.604 18.5298 12.604 17.0758C12.604 15.9278 13.3456 14.9594 14.3714 14.5979V13.3023C14.3714 12.8166 14.7644 12.4233 15.2501 12.4233C15.736 12.4233 16.129 12.8166 16.129 13.3023V14.6039C17.145 14.9706 17.8774 15.935 17.8774 17.0758C17.8774 17.5618 17.4844 17.9548 16.9985 17.9548C16.5128 17.9548 16.1196 17.5618 16.1196 17.0758C16.1196 16.591 15.7257 16.1968 15.2407 16.1968C14.7559 16.1968 14.3618 16.591 14.3618 17.0758C14.3618 17.5609 14.7557 17.9548 15.2407 17.9548Z" fill="#8CC031"/>
</g>
<defs>
<clipPath id="clip0_4383_22113">
<rect width="30" height="30.003" fill="white" transform="translate(0.25)"/>
</clipPath>
</defs>
</svg>
