<svg width="30" height="30" viewBox="0 0 30 30" fill="none" xmlns="http://www.w3.org/2000/svg">
<g clip-path="url(#clip0_2367_409)">
<path fill-rule="evenodd" clip-rule="evenodd" d="M15.092 4.46356C17.3759 5.98306 19.3649 7.09787 19.6362 9.87119H1.88161C2.15286 7.09781 4.14192 5.98306 6.42579 4.46356C6.54235 4.49096 6.66168 4.50478 6.78142 4.50475H14.7364C14.8561 4.50481 14.9754 4.49099 15.092 4.46356ZM13.13 23.6991L17.0087 21.4596L20.3868 27.3106L16.508 29.55C15.7323 29.9946 14.812 30.1136 13.9488 29.8808C13.0855 29.6481 12.3497 29.0826 11.9027 28.3083C11.4557 27.534 11.3338 26.614 11.5639 25.7501C11.7939 24.8861 12.3571 24.1485 13.13 23.6991ZM18.4473 20.6291L25.3059 24.4629C25.5505 24.3011 25.7727 24.1078 25.9669 23.8879L19.2783 20.1493L18.447 20.6291H18.4473ZM20.2831 19.5692L26.5098 23.0498C26.6263 22.7932 26.7107 22.5233 26.761 22.246L21.1141 19.0898L20.2829 19.5695L20.2831 19.5692ZM22.1485 18.5258C22.906 18.2157 23.7501 18.1899 24.5251 18.453C25.3002 18.7162 25.9541 19.2506 26.3662 19.9578C26.5722 20.3141 26.7108 20.7053 26.7749 21.1119L22.1485 18.5258ZM24.3077 25.0469L18.29 21.6829L19.095 23.0771L23.477 25.5266L24.3082 25.0469H24.3077ZM22.4719 26.1068L20.0681 24.763L21.2509 26.8117L22.4719 26.1067V26.1068ZM20.2994 28.5158V30H24.7775C25.4593 30.0007 26.1254 29.7948 26.6879 29.4094C27.2504 29.0241 27.6829 28.4774 27.9286 27.8413C28.1742 27.2052 28.2214 26.5097 28.0639 25.8463C27.9064 25.1829 27.5516 24.5828 27.0462 24.125C26.6789 24.6638 26.1947 25.1127 25.6297 25.4383L20.2994 28.5158ZM17.7286 30H19.2994V29.0931L17.7286 30ZM6.78142 0H14.7364C14.8848 0.000445132 15.027 0.0596142 15.132 0.164585C15.237 0.269556 15.2962 0.411799 15.2966 0.56025V2.94456C15.2962 3.09301 15.237 3.23526 15.132 3.34023C15.027 3.4452 14.8848 3.50437 14.7364 3.50481H6.78142C6.63297 3.50437 6.49072 3.4452 6.38575 3.34023C6.28078 3.23526 6.22161 3.09301 6.22117 2.94456V0.56025C6.22161 0.411799 6.28078 0.269556 6.38575 0.164585C6.49072 0.0596142 6.63297 0.000445132 6.78142 0ZM1.84979 10.8711V24.0299H11.2962C11.6527 23.5424 12.107 23.1347 12.6302 22.8331L19.6682 18.7697V10.8711H1.84979ZM10.1727 13.8674H11.3451C11.5108 13.8678 11.6696 13.9337 11.7867 14.0508C11.9038 14.168 11.9698 14.3268 11.9701 14.4924V16.2393H13.7171C13.8828 16.2396 14.0416 16.3056 14.1587 16.4227C14.2758 16.5399 14.3418 16.6986 14.3421 16.8643V18.0368C14.3418 18.2024 14.2758 18.3612 14.1587 18.4783C14.0416 18.5955 13.8828 18.6614 13.7171 18.6618H11.97V20.4086C11.9697 20.5743 11.9038 20.7331 11.7866 20.8502C11.6695 20.9674 11.5107 21.0333 11.345 21.0336H10.1727C10.007 21.0333 9.84821 20.9674 9.73107 20.8502C9.61393 20.7331 9.54798 20.5743 9.54767 20.4086V18.6618H7.80079C7.63513 18.6614 7.47634 18.5955 7.3592 18.4783C7.24205 18.3612 7.17611 18.2024 7.17579 18.0368V16.8643C7.17611 16.6986 7.24205 16.5399 7.3592 16.4227C7.47634 16.3056 7.63513 16.2396 7.80079 16.2393H9.54767V14.4924C9.54798 14.3268 9.61393 14.168 9.73107 14.0508C9.84821 13.9337 10.007 13.8678 10.1727 13.8674ZM10.9687 28.708C10.6668 28.1478 10.4907 27.5285 10.4526 26.8933C10.4145 26.258 10.5154 25.6222 10.7481 25.0299H1.84979V25.1496C1.85251 26.0925 2.22828 26.996 2.89502 27.6627C3.56175 28.3295 4.46526 28.7053 5.40817 28.708H10.9687Z" fill="#8CC031"/>
</g>
<defs>
<clipPath id="clip0_2367_409">
<rect width="30" height="30" fill="white"/>
</clipPath>
</defs>
</svg>
