<svg width="30" height="30" viewBox="0 0 30 30" fill="none" xmlns="http://www.w3.org/2000/svg">
<g clip-path="url(#clip0_2375_103224)">
<path d="M13.5013 4.5C13.5013 1.95 11.5513 0 9.00134 0H4.50134C1.95134 0 0.00134277 1.95 0.00134277 4.5V9C0.00134277 11.55 1.95134 13.5 4.50134 13.5H9.00134C11.5513 13.5 13.5013 11.55 13.5013 9V4.5Z" fill="#2D42D0"/>
<path d="M13.5013 21C13.5013 18.45 11.5513 16.5 9.00134 16.5H4.50134C1.95134 16.5 0.00134277 18.6 0.00134277 21V25.5C0.00134277 28.05 1.95134 30 4.50134 30H9.00134C11.5513 30 13.5013 28.05 13.5013 25.5V21Z" fill="#2D42D0"/>
<path d="M30.0013 21C30.0013 18.45 28.0513 16.5 25.5013 16.5H21.0013C18.6013 16.5 16.5013 18.6 16.5013 21V25.5C16.5013 28.05 18.4513 30 21.0013 30H25.5013C28.0513 30 30.0013 28.05 30.0013 25.5V21Z" fill="#2D42D0"/>
<path d="M23.2513 12.3C23.8513 12.3 24.4513 11.85 24.4513 11.1V7.8H27.7513C28.3513 7.8 28.9513 7.35 28.9513 6.6C28.9513 5.85 28.3513 5.4 27.7513 5.4H24.4513V2.1C24.4513 1.35 24.0013 0.9 23.2513 0.9C22.5013 0.9 22.0513 1.5 22.0513 2.1V5.4H18.7513C18.0013 5.4 17.5513 5.85 17.5513 6.6C17.5513 7.35 18.1513 7.8 18.7513 7.8H22.0513V11.1C22.0513 11.85 22.6513 12.3 23.2513 12.3Z" fill="#2D42D0"/>
<path d="M13.5013 4.5C13.5013 1.95 11.5513 0 9.00134 0H4.50134C1.95134 0 0.00134277 1.95 0.00134277 4.5V9C0.00134277 11.55 1.95134 13.5 4.50134 13.5H9.00134C11.5513 13.5 13.5013 11.55 13.5013 9V4.5Z" fill="#2D42D0"/>
<path d="M13.5013 21C13.5013 18.45 11.5513 16.5 9.00134 16.5H4.50134C1.95134 16.5 0.00134277 18.6 0.00134277 21V25.5C0.00134277 28.05 1.95134 30 4.50134 30H9.00134C11.5513 30 13.5013 28.05 13.5013 25.5V21Z" fill="#2D42D0"/>
<path d="M30.0013 21C30.0013 18.45 28.0513 16.5 25.5013 16.5H21.0013C18.6013 16.5 16.5013 18.6 16.5013 21V25.5C16.5013 28.05 18.4513 30 21.0013 30H25.5013C28.0513 30 30.0013 28.05 30.0013 25.5V21Z" fill="#2D42D0"/>
<path d="M23.2513 12.3C23.8513 12.3 24.4513 11.85 24.4513 11.1V7.8H27.7513C28.3513 7.8 28.9513 7.35 28.9513 6.6C28.9513 5.85 28.3513 5.4 27.7513 5.4H24.4513V2.1C24.4513 1.35 24.0013 0.9 23.2513 0.9C22.5013 0.9 22.0513 1.5 22.0513 2.1V5.4H18.7513C18.0013 5.4 17.5513 5.85 17.5513 6.6C17.5513 7.35 18.1513 7.8 18.7513 7.8H22.0513V11.1C22.0513 11.85 22.6513 12.3 23.2513 12.3Z" fill="#2D42D0"/>
</g>
<defs>
<clipPath id="clip0_2375_103224">
<rect width="30" height="30" fill="white"/>
</clipPath>
</defs>
</svg>
