<svg width="30" height="30" viewBox="0 0 30 30" fill="none" xmlns="http://www.w3.org/2000/svg">
<g clip-path="url(#clip0_2367_416)">
<path d="M14.7062 24.1735C15.8379 23.5851 17.1769 23.8181 18.3578 24.0228C18.9909 24.1688 19.6411 24.227 20.29 24.1959C20.4781 24.1793 20.6557 24.1019 20.7961 23.9756C20.9364 23.8493 21.0319 23.6807 21.0681 23.4954C21.1031 23.2894 21.0694 23.0776 20.9724 22.8925C20.8753 22.7074 20.7202 22.5593 20.5309 22.4709C19.865 22.0959 17.3472 21.3304 15.7066 20.9469C14.843 20.7425 13.9588 20.6385 13.0714 20.6369C11.3362 20.6571 9.62498 21.044 8.04991 21.7722C6.77677 22.3295 2.92873 24.7665 1.9718 26.1708C1.88166 26.2842 1.83979 26.4286 1.85527 26.5726C1.90977 27.2395 4.28299 29.7049 4.9757 29.952C5.06623 29.9919 5.16564 30.0073 5.264 29.9968C5.36236 29.9863 5.45625 29.9501 5.53629 29.892C5.6581 29.8184 7.42854 28.4835 8.25486 28.2205C9.71561 27.7543 11.7651 27.9651 13.4122 28.1341C14.1109 28.2059 14.7145 28.268 15.1723 28.2705H15.1975C17.5277 28.2705 25.2201 26.5021 26.3302 25.5579C26.3873 25.5069 26.4318 25.4434 26.4603 25.3722C26.4887 25.3011 26.5002 25.2244 26.494 25.148C26.4853 25.0204 26.4483 24.8962 26.3857 24.7846C26.3231 24.673 26.2365 24.5768 26.132 24.5028C25.2911 23.9013 23.6621 24.2732 22.2252 24.6013C21.6357 24.7498 21.0379 24.8634 20.4349 24.9413C20.4191 24.9431 20.0868 24.9727 19.9399 24.9727C19.3654 24.9525 18.7936 24.8841 18.2305 24.7683C17.1148 24.5741 15.9615 24.3732 15.0558 24.8436C14.9671 24.8898 14.8638 24.8988 14.7685 24.8687C14.6732 24.8386 14.5937 24.7719 14.5476 24.6833C14.5015 24.5946 14.4924 24.4913 14.5225 24.3959C14.5526 24.3006 14.6193 24.2212 14.708 24.175L14.7062 24.1735ZM23.4519 0.303153L23.7596 0.865754C23.8131 0.963461 23.8934 1.04381 23.9911 1.09733L24.5535 1.40475C24.6452 1.45494 24.7217 1.52888 24.775 1.6188C24.8282 1.70873 24.8564 1.81133 24.8564 1.91586C24.8564 2.02039 24.8282 2.12299 24.775 2.21292C24.7217 2.30284 24.6452 2.37678 24.5535 2.42697L23.9911 2.73465C23.8933 2.78801 23.8129 2.8684 23.7596 2.96622L23.4519 3.52807C23.4017 3.61975 23.3278 3.69625 23.2378 3.74954C23.1479 3.80283 23.0453 3.83095 22.9408 3.83095C22.8362 3.83095 22.7336 3.80283 22.6437 3.74954C22.5538 3.69625 22.4799 3.61975 22.4297 3.52807L22.1222 2.96572C22.0689 2.8679 21.9885 2.78751 21.8907 2.73414L21.3283 2.42647C21.2366 2.37633 21.16 2.30242 21.1067 2.21249C21.0533 2.12255 21.0252 2.01992 21.0252 1.91536C21.0252 1.8108 21.0533 1.70816 21.1067 1.61823C21.16 1.5283 21.2366 1.45438 21.3283 1.40424L21.8907 1.09682C21.9884 1.04331 22.0687 0.962959 22.1222 0.865252L22.4297 0.303153C22.4798 0.211397 22.5537 0.13483 22.6436 0.0814887C22.7336 0.0281478 22.8362 0 22.9408 0C23.0453 0 23.148 0.0281478 23.2379 0.0814887C23.3278 0.13483 23.4017 0.211397 23.4519 0.303153ZM4.3812 9.3412L4.58815 9.71995C4.62427 9.7857 4.67837 9.8398 4.74412 9.87592L5.12262 10.0829C5.18441 10.1166 5.23597 10.1664 5.27189 10.2269C5.30781 10.2875 5.32677 10.3566 5.32677 10.427C5.32677 10.4974 5.30781 10.5665 5.27189 10.627C5.23597 10.6876 5.18441 10.7373 5.12262 10.7711L4.74412 10.978C4.67832 11.0141 4.6242 11.0682 4.58815 11.134L4.3812 11.5125C4.34745 11.5743 4.2977 11.6258 4.23715 11.6618C4.1766 11.6977 4.1075 11.7166 4.0371 11.7166C3.96671 11.7166 3.8976 11.6977 3.83706 11.6618C3.77651 11.6258 3.72676 11.5743 3.69301 11.5125L3.48606 11.134C3.45001 11.0682 3.39589 11.0141 3.33009 10.978L2.94958 10.7711C2.88779 10.7373 2.83623 10.6876 2.80031 10.627C2.76439 10.5665 2.74543 10.4974 2.74543 10.427C2.74543 10.3566 2.76439 10.2875 2.80031 10.2269C2.83623 10.1664 2.88779 10.1166 2.94958 10.0829L3.32808 9.87592C3.39383 9.8398 3.44793 9.7857 3.48405 9.71995L3.691 9.3412C3.72464 9.27899 3.77447 9.22703 3.83522 9.19081C3.89597 9.1546 3.96538 9.13548 4.0361 9.13548C4.10682 9.13548 4.17623 9.1546 4.23698 9.19081C4.29773 9.22703 4.34756 9.27899 4.3812 9.3412Z" fill="#8CC031"/>
<path d="M22.6032 16.2675C22.5832 16.2675 22.5641 16.2595 22.5499 16.2454C22.5358 16.2313 22.5279 16.2121 22.5279 16.1921V14.6374C22.528 14.5374 22.5084 14.4384 22.4702 14.3459C22.432 14.2535 22.3759 14.1695 22.3052 14.0988C22.2345 14.028 22.1505 13.9719 22.0581 13.9337C21.9657 13.8955 21.8666 13.8758 21.7666 13.8759H15.1241C15.1241 13.8759 14.9131 10.9258 16.1303 9.38364C16.494 9.5884 16.9141 9.67015 17.3281 9.6167C17.742 9.56324 18.1276 9.37745 18.4274 9.08702C19.3017 8.2607 19.6528 6.92201 19.5765 5.677C19.5701 5.56677 19.5235 5.46269 19.4457 5.3844C19.3678 5.30611 19.264 5.25903 19.1538 5.25204C17.9934 5.18046 16.7511 5.48034 15.918 6.22906C15.6905 6.43141 15.5094 6.68061 15.3871 6.95954C15.2649 7.23848 15.2045 7.54055 15.21 7.84503C15.2104 7.86086 15.2155 7.87622 15.2247 7.8891C15.2339 7.90198 15.2468 7.91178 15.2617 7.9172C15.2765 7.92263 15.2927 7.92344 15.3081 7.91953C15.3234 7.91561 15.3372 7.90715 15.3477 7.89526C15.6924 7.51693 16.0837 7.18383 16.5123 6.90393C16.5582 6.87374 16.6101 6.85395 16.6644 6.84595C16.7188 6.83794 16.7742 6.84191 16.8269 6.85759C16.8795 6.87326 16.9281 6.90025 16.9692 6.93668C17.0103 6.9731 17.0429 7.01807 17.0648 7.06844C17.0982 7.15436 17.1004 7.24922 17.0711 7.33661C17.0419 7.42399 16.983 7.49838 16.9046 7.5469C16.8152 7.60668 16.7288 7.66846 16.6447 7.73176L16.7501 7.75687C16.7982 7.76864 16.8435 7.78977 16.8834 7.81904C16.9233 7.8483 16.957 7.88514 16.9827 7.92745C17.0083 7.96976 17.0254 8.01671 17.0329 8.06561C17.0404 8.11452 17.0382 8.16442 17.0264 8.21248C17.0099 8.29631 16.964 8.37148 16.897 8.42441C16.8299 8.47734 16.7461 8.50453 16.6607 8.50106C16.5384 8.48675 16.2225 8.40763 16.0635 8.36669C16.0349 8.35891 16.0046 8.3595 15.9764 8.36841C15.9481 8.37731 15.923 8.39415 15.904 8.41692C15.784 8.56383 15.6668 8.71296 15.5524 8.86424C15.1275 9.47307 14.819 10.1552 14.6424 10.8763C14.4189 10.0539 14.0936 9.26255 13.6742 8.52065C14.3626 7.43061 14.0966 5.9465 13.0862 5.03855C11.9454 4.01306 10.2441 3.60241 8.65496 3.70036C8.50435 3.71043 8.36255 3.77496 8.25602 3.8819C8.14949 3.98885 8.08552 4.1309 8.07603 4.28155C7.97155 5.98669 8.45277 7.82042 9.65006 8.95315C9.98884 9.27877 10.4072 9.50965 10.8633 9.62267C11.3194 9.73569 11.7972 9.72688 12.2488 9.59713C12.2786 9.58881 12.306 9.57373 12.329 9.55308C12.352 9.53243 12.3699 9.50676 12.3813 9.47807C12.3928 9.44937 12.3974 9.41843 12.395 9.38763C12.3925 9.35684 12.383 9.32702 12.3671 9.30051C12.112 8.89233 11.8217 8.50718 11.4996 8.14944L10.3819 8.27502C10.3678 8.27672 10.3535 8.27756 10.3392 8.27753C10.2412 8.27757 10.1469 8.23936 10.0766 8.17103C10.0062 8.1027 9.96532 8.00962 9.96251 7.91159C9.96395 7.81362 10.0017 7.71968 10.0685 7.64798C10.1353 7.57628 10.2263 7.53194 10.3239 7.52354L10.8112 7.46854C10.636 7.31196 10.4546 7.16248 10.2674 7.02047C10.1859 6.96392 10.1293 6.8781 10.1094 6.78088C10.0896 6.68365 10.108 6.58252 10.1609 6.49855C10.1877 6.45677 10.2227 6.42079 10.2636 6.39273C10.3046 6.36466 10.3508 6.34509 10.3994 6.33517C10.4481 6.32524 10.4982 6.32516 10.5469 6.33493C10.5956 6.3447 10.6418 6.36413 10.6828 6.39206C11.5547 7.07377 12.3105 7.89218 12.9207 8.81552C13.8343 10.3451 14.3147 12.0943 14.3106 13.8759H8.10165C7.89995 13.8759 7.70651 13.956 7.56388 14.0987C7.42126 14.2413 7.34113 14.4347 7.34113 14.6364V16.1911C7.34113 16.2111 7.3332 16.2303 7.31907 16.2444C7.30493 16.2585 7.28577 16.2665 7.26579 16.2665C6.99687 16.2665 6.73897 16.3733 6.54882 16.5634C6.35867 16.7536 6.25185 17.0115 6.25185 17.2804V21.888C6.73453 21.5913 7.23364 21.3222 7.74676 21.082C9.51669 20.3069 12.2852 19.3741 15.8764 20.213C17.3959 20.5684 20.1079 21.3683 20.8996 21.8146C21.2284 21.9797 21.4947 22.2472 21.6584 22.5767C21.8221 22.9063 21.8742 23.2801 21.807 23.6418C21.7872 23.7449 21.7575 23.8459 21.7181 23.9432C21.8291 23.9181 23.0942 23.6298 23.6169 23.5446V17.2814C23.6169 17.1483 23.5907 17.0164 23.5398 16.8934C23.4889 16.7704 23.4142 16.6586 23.3201 16.5645C23.226 16.4703 23.1142 16.3956 22.9912 16.3447C22.8682 16.2937 22.7364 16.2675 22.6032 16.2675Z" fill="#8CC031"/>
</g>
<defs>
<clipPath id="clip0_2367_416">
<rect width="30" height="30" fill="white"/>
</clipPath>
</defs>
</svg>
