<svg width="30" height="30" viewBox="0 0 30 30" fill="none" xmlns="http://www.w3.org/2000/svg">
<g clip-path="url(#clip0_2367_402)">
<path d="M24.9973 9.64295C25.0157 11.005 24.6696 12.2777 23.9439 13.4162C23.5783 13.9907 23.0994 14.5015 22.6153 14.9867C19.1968 18.4245 15.7699 21.855 12.3347 25.2782C11.1557 26.4591 9.73704 27.1555 8.08929 27.3407C6.05641 27.5717 4.22416 27.043 2.64278 25.7282C1.28003 24.5987 0.424657 23.1591 0.117157 21.4086C-0.204593 19.5745 0.158407 17.8667 1.13341 16.2936C1.37862 15.9099 1.66687 15.5555 1.99253 15.2372C5.67854 11.5442 9.36979 7.8567 13.0663 4.17469C13.8827 3.36094 14.8982 2.89632 15.9954 2.62594C20.1838 1.59282 24.0148 4.27819 24.8308 8.1032C24.9384 8.6072 24.9752 9.12657 25.0446 9.6407L24.9973 9.64295ZM8.48904 10.8055L16.61 18.931C16.6255 18.921 16.6399 18.9096 16.6532 18.8968C18.4265 17.0998 20.2067 15.3096 21.9699 13.5032C22.9131 12.5372 23.4399 11.3826 23.4621 10.0104C23.4771 9.10482 23.4336 8.22245 23.0548 7.3712C22.1511 5.34132 19.9172 3.56944 17.0447 3.94857C15.8353 4.10794 14.7699 4.5707 13.8947 5.44857C12.5488 6.79857 11.1864 8.13095 9.83192 9.47157C9.37779 9.92045 8.92779 10.3701 8.48904 10.8058V10.8055ZM7.39029 11.9035C7.11879 12.1783 6.85104 12.4483 6.58441 12.7195C5.31216 14.0097 4.04116 15.301 2.77141 16.5932C2.44441 16.9273 2.45866 16.9907 2.81191 17.3035L2.82578 17.3158C3.09766 17.551 3.14153 17.5558 3.39728 17.3038C4.94979 15.7731 6.50054 14.2407 8.04954 12.7067C8.07096 12.6823 8.09051 12.6564 8.10804 12.6291L7.39029 11.9035Z" fill="#2D42D0"/>
<path d="M30.0006 22.5118C29.9754 22.7091 29.9608 22.8812 29.9304 23.0507C29.4156 25.9382 26.9477 28.27 24.0354 28.6225C20.8854 29.0038 17.9514 27.2725 16.763 24.319C16.6562 24.0535 16.583 23.7748 16.4867 23.5052C16.4447 23.3871 16.4773 23.3083 16.5647 23.2255C16.7597 23.041 16.9532 22.8535 17.132 22.654C17.2348 22.5415 17.3454 22.5092 17.4924 22.5092C21.5782 22.5127 25.6637 22.5136 29.7489 22.5118H30.0006Z" fill="#2D42D0"/>
<path d="M30.0028 21.0306H18.7731L19.0817 20.7171C20.8419 18.934 22.6097 17.1572 24.3538 15.3583C24.5908 15.1142 24.7772 15.0771 25.0798 15.1708C27.0039 15.7731 28.4312 16.9648 29.3451 18.757C29.7073 19.468 29.9158 20.2333 30.0028 21.0306Z" fill="#2D42D0"/>
</g>
<defs>
<clipPath id="clip0_2367_402">
<rect width="30" height="30" fill="white"/>
</clipPath>
</defs>
</svg>
