<svg width="30" height="30" viewBox="0 0 30 30" fill="none" xmlns="http://www.w3.org/2000/svg">
<g clip-path="url(#clip0_2367_423)">
<path d="M5.96336 4.76648C5.96336 4.46004 5.7176 4.21112 5.41122 4.21112H3.58251C3.27935 4.21112 3.03037 4.46004 3.03037 4.76648V5.51325H5.96336V4.76648ZM26.9729 4.76648C26.9729 4.46004 26.7239 4.21112 26.4207 4.21112H24.592C24.2856 4.21112 24.0399 4.46004 24.0399 4.76648V5.51325H26.9729V4.76648ZM11.3633 3.47073C11.3633 3.29521 11.5069 3.15157 11.6825 3.15157H18.3208C18.4963 3.15157 18.6399 3.29521 18.6399 3.47073V5.51331H19.9165V3.47073C19.9165 2.59305 19.2016 1.875 18.3208 1.875H11.6825C10.8016 1.875 10.0867 2.59311 10.0867 3.47073V5.51331H11.3633V3.47073ZM28.725 6.15157H1.27828C0.572958 6.15157 0.00170898 6.72288 0.00170898 7.42814V25.8653C0.00170898 26.5707 0.572958 27.1419 1.27828 27.1419H2.22298V27.9398C2.22298 28.2909 2.51019 28.5781 2.86129 28.5781H5.68576C6.03681 28.5781 6.32408 28.2909 6.32408 27.9398V27.1419H23.6793V27.9398C23.6793 28.2909 23.9666 28.5781 24.3177 28.5781H27.1421C27.4932 28.5781 27.7804 28.2909 27.7804 27.9398V27.1419H28.7251C29.4305 27.1419 30.0017 26.5706 30.0017 25.8653V7.42814C30.0016 6.72288 29.4303 6.15157 28.725 6.15157ZM15.0016 23.4987C11.2162 23.4987 8.1481 20.4306 8.1481 16.6452C8.1481 12.8624 11.2162 9.79164 15.0016 9.79164C18.7871 9.79164 21.8551 12.8625 21.8551 16.6452C21.8551 20.4306 18.7871 23.4987 15.0016 23.4987Z" fill="#8CC031"/>
<path d="M18.9638 15.3127H16.3341V12.6829C16.3341 12.3304 16.0483 12.0446 15.6957 12.0446H14.3043C13.9518 12.0446 13.666 12.3304 13.666 12.6829V15.3127H11.0393C10.6868 15.3127 10.401 15.5985 10.401 15.951V17.3425C10.401 17.695 10.6868 17.9808 11.0393 17.9808H13.666V20.6074C13.666 20.9599 13.9517 21.2457 14.3043 21.2457H15.6957C16.0483 21.2457 16.3341 20.96 16.3341 20.6074V17.9808H18.9638C19.3164 17.9808 19.6022 17.695 19.6022 17.3425V15.951C19.6022 15.5985 19.3164 15.3127 18.9638 15.3127Z" fill="#8CC031"/>
</g>
<defs>
<clipPath id="clip0_2367_423">
<rect width="30" height="30" fill="white"/>
</clipPath>
</defs>
</svg>
