<svg width="60" height="60" viewBox="0 0 60 60" fill="none" xmlns="http://www.w3.org/2000/svg">
<path fill-rule="evenodd" clip-rule="evenodd" d="M42.8527 42.4299L55.5366 55.112C55.8865 55.4499 56.3551 55.6369 56.8415 55.6327C57.328 55.6285 57.7933 55.4334 58.1372 55.0894C58.4812 54.7454 58.6763 54.2801 58.6805 53.7937C58.6848 53.3073 58.4978 52.8386 58.1598 52.4888L45.4778 39.8049C49.2302 35.4403 51.2902 29.8732 51.2827 24.1174C51.2827 10.8065 40.4762 0 27.1653 0C13.8543 0 3.04785 10.8065 3.04785 24.1174C3.04785 37.4284 13.8543 48.2348 27.1653 48.2348C33.1538 48.2348 38.6359 46.0476 42.8527 42.4299ZM27.1653 3.71037C38.4281 3.71037 47.5723 12.8546 47.5723 24.1174C47.5723 35.3802 38.4281 44.5244 27.1653 44.5244C15.9024 44.5244 6.75822 35.3802 6.75822 24.1174C6.75822 12.8546 15.9024 3.71037 27.1653 3.71037Z" fill="white"/>
<path fill-rule="evenodd" clip-rule="evenodd" d="M42.8527 42.4299L55.5366 55.112C55.8865 55.4499 56.3551 55.6369 56.8415 55.6327C57.328 55.6285 57.7933 55.4334 58.1372 55.0894C58.4812 54.7454 58.6763 54.2801 58.6805 53.7937C58.6848 53.3073 58.4978 52.8386 58.1598 52.4888L45.4778 39.8049C49.2302 35.4403 51.2902 29.8732 51.2827 24.1174C51.2827 10.8065 40.4762 0 27.1653 0C13.8543 0 3.04785 10.8065 3.04785 24.1174C3.04785 37.4284 13.8543 48.2348 27.1653 48.2348C33.1538 48.2348 38.6359 46.0476 42.8527 42.4299ZM27.1653 3.71037C38.4281 3.71037 47.5723 12.8546 47.5723 24.1174C47.5723 35.3802 38.4281 44.5244 27.1653 44.5244C15.9024 44.5244 6.75822 35.3802 6.75822 24.1174C6.75822 12.8546 15.9024 3.71037 27.1653 3.71037Z" fill="#8CC031" fill-opacity="0.4"/>
<path fill-rule="evenodd" clip-rule="evenodd" d="M27.1659 21.4942L20.6059 14.9342C20.256 14.5963 19.7874 14.4093 19.301 14.4135C18.8146 14.4177 18.3493 14.6129 18.0053 14.9568C17.6613 15.3008 17.4662 15.7661 17.462 16.2525C17.4578 16.7389 17.6447 17.2076 17.9827 17.5575L24.5426 24.1174L17.9827 30.6773C17.6447 31.0272 17.4578 31.4958 17.462 31.9823C17.4662 32.4687 17.6613 32.934 18.0053 33.278C18.3493 33.6219 18.8146 33.817 19.301 33.8213C19.7874 33.8255 20.256 33.6385 20.6059 33.3006L27.1659 26.7406L33.7258 33.3006C34.0757 33.6385 34.5443 33.8255 35.0307 33.8213C35.5172 33.817 35.9825 33.6219 36.3264 33.278C36.6704 32.934 36.8655 32.4687 36.8697 31.9823C36.874 31.4958 36.687 31.0272 36.349 30.6773L29.7891 24.1174L36.349 17.5575C36.687 17.2076 36.874 16.7389 36.8697 16.2525C36.8655 15.7661 36.6704 15.3008 36.3264 14.9568C35.9825 14.6129 35.5172 14.4177 35.0307 14.4135C34.5443 14.4093 34.0757 14.5963 33.7258 14.9342L27.1659 21.4942Z" fill="white"/>
<path fill-rule="evenodd" clip-rule="evenodd" d="M27.1659 21.4942L20.6059 14.9342C20.256 14.5963 19.7874 14.4093 19.301 14.4135C18.8146 14.4177 18.3493 14.6129 18.0053 14.9568C17.6613 15.3008 17.4662 15.7661 17.462 16.2525C17.4578 16.7389 17.6447 17.2076 17.9827 17.5575L24.5426 24.1174L17.9827 30.6773C17.6447 31.0272 17.4578 31.4958 17.462 31.9823C17.4662 32.4687 17.6613 32.934 18.0053 33.278C18.3493 33.6219 18.8146 33.817 19.301 33.8213C19.7874 33.8255 20.256 33.6385 20.6059 33.3006L27.1659 26.7406L33.7258 33.3006C34.0757 33.6385 34.5443 33.8255 35.0307 33.8213C35.5172 33.817 35.9825 33.6219 36.3264 33.278C36.6704 32.934 36.8655 32.4687 36.8697 31.9823C36.874 31.4958 36.687 31.0272 36.349 30.6773L29.7891 24.1174L36.349 17.5575C36.687 17.2076 36.874 16.7389 36.8697 16.2525C36.8655 15.7661 36.6704 15.3008 36.3264 14.9568C35.9825 14.6129 35.5172 14.4177 35.0307 14.4135C34.5443 14.4093 34.0757 14.5963 33.7258 14.9342L27.1659 21.4942Z" fill="#8CC031" fill-opacity="0.4"/>
<ellipse cx="27.1666" cy="57.3562" rx="25.8472" ry="2.64378" fill="white"/>
<ellipse cx="27.1666" cy="57.3562" rx="25.8472" ry="2.64378" fill="#8CC031" fill-opacity="0.4"/>
</svg>
