<svg width="26" height="26" viewBox="0 0 26 26" fill="none" xmlns="http://www.w3.org/2000/svg">
<path d="M11.1529 25.4829C13.0392 25.4829 14.6172 24.138 14.9796 22.3579H7.32614C7.6887 24.138 9.26667 25.4829 11.1529 25.4829ZM19.0437 15.5828C19.0166 15.5828 18.9917 15.587 18.9646 15.587C14.3702 15.587 10.6322 11.8486 10.6322 7.25381C10.6322 5.44849 11.2154 3.78091 12.1945 2.41411V1.52451C12.1945 0.948486 11.7278 0.48291 11.1529 0.48291C10.5781 0.48291 10.1114 0.948486 10.1114 1.52451V2.64966C6.58349 3.15796 3.86199 6.19238 3.86199 9.85791V12.7621C3.86199 14.8235 2.95896 16.7694 1.37469 18.1089C1.1747 18.2798 1.01416 18.4921 0.904118 18.7311C0.79408 18.9701 0.737168 19.2301 0.737305 19.4933C0.737305 20.4986 1.5549 21.3163 2.55997 21.3163H19.7457C20.751 21.3163 21.5686 20.4986 21.5686 19.4933C21.5686 18.96 21.3363 18.4559 20.9207 18.1007C20.0999 17.4059 19.4668 16.5413 19.0437 15.5828Z" fill="#2D42D0"/>
</svg>
